<?xml version="1.0" encoding="UTF-8"?>
<svg id="uuid-154beba2-09a2-472f-bc7e-72702ee56b72" data-name="Logo" xmlns="http://www.w3.org/2000/svg" viewBox="0 0 230 58.56405">
  <defs>
    <style>
      .uuid-d5046396-e9ba-43ce-95c1-aee15aeec4d9 {
        fill: #fff;
      }
    </style>
  </defs>
  <path class="uuid-d5046396-e9ba-43ce-95c1-aee15aeec4d9" d="M173.63709,28.9687c0,10.57183-4.0669,15.85599-12.19832,15.85599-3.80913,0-6.69918-1.19644-8.66673-3.59522v17.33458h-3.08194V13.75366h3.08194v3.2733c2.05425-2.61033,4.94312-3.91662,8.66673-3.91662,8.13143,0,12.19832,5.28707,12.19832,15.85836ZM170.55514,28.9687c0-3.85246-.53637-6.78359-1.60572-8.79505-1.45426-2.65425-3.95823-3.98078-7.51066-3.98078-2.39648,0-4.44032.72772-6.13156,2.18198-1.69126,1.45663-2.53516,3.38197-2.53516,5.77898v9.62966c0,2.35369.84391,4.25885,2.53516,5.71423,1.69124,1.45432,3.73508,2.18145,6.13156,2.18145,3.55243,0,6.0564-1.30398,7.51066-3.91543,1.06936-2.01152,1.60572-4.94437,1.60572-8.79505Z"/>
  <path class="uuid-d5046396-e9ba-43ce-95c1-aee15aeec4d9" d="M202.50074,43.88428l-2.82418.83468-1.22076-3.08194c-2.73977,2.14091-5.82059,3.21026-9.24476,3.21026-3.12474,0-5.67144-.76992-7.64016-2.31208-2.14097-1.66811-3.21027-4.00096-3.21027-6.99625,0-2.8253,1.04852-5.07263,3.14669-6.74133,1.92593-1.49765,4.32235-2.24792,7.19045-2.24792h4.49346c2.48088,0,4.19522-.51328,5.13625-1.53979v-2.95368c0-1.7109-.79188-3.1461-2.37565-4.30211-1.45544-1.02597-3.05998-1.53985-4.81486-1.53985-4.53739,0-7.31877,1.69072-8.34646,5.0715l-2.9525-.89884c1.75482-4.83504,5.56277-7.25402,11.42728-7.25402,2.60914,0,4.92122.79241,6.93387,2.37559,2.13866,1.71208,3.20914,3.82991,3.20914,6.35471v19.06744l1.09244,2.95362ZM198.32749,37.72039v-9.18001c-1.1988.64273-2.65537.963-4.36633.963h-5.26338c-2.01259,0-3.68194.49357-5.00788,1.47622-1.45544,1.07161-2.18257,2.58949-2.18257,4.55934,0,2.01034.7907,3.5941,2.37565,4.75011,1.41147.98495,3.18831,1.47628,5.32808,1.47628,3.46696,0,6.50499-1.34796,9.11644-4.04494Z"/>
  <g>
    <path class="uuid-d5046396-e9ba-43ce-95c1-aee15aeec4d9" d="M15.67655,13.17059c.08565-4.45303,1.14538-7.76192,3.18047-9.92478,2.03391-2.16292,5.34274-3.24581,9.92656-3.24581v6.49043c-2.65636,0-4.43342.47086-5.33238,1.41206-.90008.9435-1.37213,2.67886-1.41377,5.20449h5.84719v5.84779h-5.84719v25.89182h-6.36088v-25.89182H6.61773v25.89182H0V13.10697l15.67655.06362Z"/>
    <path class="uuid-d5046396-e9ba-43ce-95c1-aee15aeec4d9" d="M46.65143,19.01897h-4.3698v17.47559c0,1.24258.27882,1.86272.83534,1.86272h2.82754v6.48931h-2.82754c-2.65636,0-4.64744-1.07021-5.97562-3.21287-.77054-1.28417-1.1558-2.99649-1.1558-5.13915v-17.47559h-3.85493v-5.912h3.85493V4.62659h6.29608v8.48039h4.3698v5.912Z"/>
    <path class="uuid-d5046396-e9ba-43ce-95c1-aee15aeec4d9" d="M78.36551,44.84658h-6.55405v-17.66888c0-2.698-.38645-4.62487-1.15699-5.7812-.98568-1.49943-2.80557-2.2503-5.46074-2.2503-2.52793,0-4.305.8787-5.3335,2.63556h0c-.54671.96168-.83415,2.04892-.83415,3.15514v19.90967h-6.55411V0h6.55411v14.00712c1.88351-.94119,3.9394-1.41383,6.16766-1.41383,5.01073,0,8.67361,1.7343,10.98634,5.20508,1.4566,2.22654,2.18543,5.35435,2.18543,9.37934v17.66888Z"/>
    <path class="uuid-d5046396-e9ba-43ce-95c1-aee15aeec4d9" d="M110.52161,31.67593h-19.91793c.17119,2.05589.59928,3.5761,1.28535,4.56178,1.28535,1.92752,3.44768,2.89122,6.48931,2.89122,2.61234,0,4.83947-1.00653,6.68134-3.01959l5.26988,3.91854c-3.25683,3.59808-7.21932,5.39831-11.88761,5.39831-5.48278,0-9.50777-1.90667-12.07847-5.71877-1.62898-2.44234-2.44115-5.93285-2.44115-10.47384,0-4.53868.81218-8.0315,2.44115-10.47265,2.52675-3.72591,6.36088-5.59035,11.50116-5.59035,4.66829,0,8.24552,1.88701,10.7295,5.65515,1.02851,1.50055,1.64864,3.5761,1.86266,6.23246.0856.89896.10757,3.10524.06481,6.61773ZM103.83907,25.31505c-.17119-1.54107-.42804-2.5707-.77054-3.08386-1.24252-1.79904-2.9988-2.69912-5.2687-2.69912-3.94171,0-6.27523,1.92806-7.00294,5.78298h13.04217Z"/>
    <path class="uuid-d5046396-e9ba-43ce-95c1-aee15aeec4d9" d="M142.57616,44.84658h-6.55411v-17.98934c0-2.61234-.38527-4.47506-1.1558-5.59035-.98686-1.45542-2.80675-2.18431-5.46193-2.18431-2.56958,0-4.36974.87811-5.39599,2.6355-.00302.00513-.00603.01027-.00904.01543-.53726.92045-.76262,1.99107-.76262,3.05685v20.05621h-6.55405V13.62185h6.55405v.9637c1.96911-.94232,4.02499-1.41496,6.16766-1.41496,5.18079,0,8.84486,1.54225,10.98753,4.62777,1.45542,2.14213,2.18431,5.16059,2.18431,9.05888v17.98934Z"/>
    <rect class="uuid-d5046396-e9ba-43ce-95c1-aee15aeec4d9" y="4.62659" width="6.29608" height="6.29608"/>
  </g>
  <path class="uuid-d5046396-e9ba-43ce-95c1-aee15aeec4d9" d="M215.93393,44.00136l3.92678,1.37968-2.44097,6.58001c-1.59194,4.13904-5.62485,6.26163-9.55163,6.36775-.21226-.42452-1.59194-4.24517-1.59194-4.24517h1.59194c2.5471,0,4.3513-.21226,5.41259-3.18388l2.5471-6.79227h0l.10613-.10613Z"/>
  <polygon class="uuid-d5046396-e9ba-43ce-95c1-aee15aeec4d9" points="209.0293 17.25679 226.96514 17.25679 226.40066 13.41828 224.6303 13.11775 211.36415 13.11775 209.87834 13.6484 209.0293 17.25679"/>
  <path class="uuid-d5046396-e9ba-43ce-95c1-aee15aeec4d9" d="M222.92028,25.641c-.53065,1.48581-.95516,3.29001-3.18388,4.45743l6.04937-2.22871c.74291-.31839,1.16742-1.37968,1.48581-2.12258,1.40341-3.77842,1.3967-3.76047,2.44097-6.58001,1.16742-3.18388-1.37968-6.04937-4.77582-6.04937h-.63677c.95516,0,2.97162.53065,2.01646,3.18388,0,0-3.39614,9.33937-3.39614,9.33937Z"/>
  <path class="uuid-d5046396-e9ba-43ce-95c1-aee15aeec4d9" d="M216.56448,46.12394c.53065,1.37968,1.52421,3.05561,1.0997,5.17819l2.29644-6.13336c.31839-.74291.31839-1.06129,0-1.91033l-9.87002-26.85069c-.95516-2.75936,1.06129-3.29001,2.12258-3.29001h-.84903c-3.39614,0-5.83711,2.97162-4.66969,6.1555l9.87002,26.85069h0Z"/>
</svg>